<?xml version="1.0" standalone="no"?>
<!DOCTYPE svg PUBLIC "-//W3C//DTD SVG 20010904//EN"
 "http://www.w3.org/TR/2001/REC-SVG-20010904/DTD/svg10.dtd">
<svg version="1.0" xmlns="http://www.w3.org/2000/svg"
 width="32.000000pt" height="32.000000pt" viewBox="0 0 32.000000 32.000000"
 preserveAspectRatio="xMidYMid meet">

<g transform="translate(0.000000,32.000000) scale(0.100000,-0.100000)"
fill="#000000" stroke="none">
<path d="M60 231 c0 -15 28 -21 97 -21 56 0 64 -2 61 -17 -3 -15 -15 -18 -78
-19 l-75 -1 -3 -47 c-2 -35 0 -46 12 -46 9 0 16 12 18 32 4 48 41 49 95 3 39
-33 73 -45 73 -26 0 5 -11 16 -25 25 -28 18 -33 36 -10 36 8 0 19 9 25 21 9
16 8 26 -5 45 -14 22 -21 24 -100 24 -47 0 -85 -4 -85 -9z"/>
</g>
</svg>
